<svg width="64" height="64" viewBox="0 0 64 64" fill="none" xmlns="http://www.w3.org/2000/svg">
<rect width="64" height="64" rx="8" fill="#F15156"/>
<path d="M38.7231 55.8528C35.1735 59.76 28.9277 59.7974 25.331 55.933C23.7246 54.207 24.9723 51.4421 27.3641 51.4277L36.6356 51.3722C39.0274 51.3579 40.3085 54.1077 38.7231 55.8528Z" fill="white"/>
<path fill-rule="evenodd" clip-rule="evenodd" d="M47.4552 51.0537C45.5833 52.5082 42.9397 52.0277 41.355 50.2722L36.3202 44.6948C34.2911 42.447 30.7293 42.447 28.7002 44.6948L23.2512 50.7311C21.7063 52.4424 19.1489 52.95 17.273 51.5987C11.0458 47.1127 7 39.8551 7 31.6652C7 18.043 18.1929 7 32 7C45.8071 7 57 18.043 57 31.6652C57 39.5313 53.2678 46.5374 47.4552 51.0537ZM24.4525 34.4283L29.1778 39.9452C30.6786 41.6974 33.3214 41.6974 34.8222 39.9452L39.5475 34.4283C41.0643 32.6574 40.2822 29.8547 38.0868 29.1938C34.1112 27.9972 29.8888 27.9972 25.9132 29.1938C23.7178 29.8546 22.9357 32.6574 24.4525 34.4283ZM24.5926 22.7407C24.5926 24.7862 22.9344 26.4444 20.8889 26.4444C18.8434 26.4444 17.1852 24.7862 17.1852 22.7407C17.1852 20.6952 18.8434 19.037 20.8889 19.037C22.9344 19.037 24.5926 20.6952 24.5926 22.7407ZM43.1111 26.4444C45.1566 26.4444 46.8148 24.7862 46.8148 22.7407C46.8148 20.6952 45.1566 19.037 43.1111 19.037C41.0656 19.037 39.4074 20.6952 39.4074 22.7407C39.4074 24.7862 41.0656 26.4444 43.1111 26.4444Z" fill="white"/>
</svg>
